<?xml version="1.0" encoding="UTF-8" standalone="no"?>
<!DOCTYPE svg PUBLIC "-//W3C//DTD SVG 1.1//EN"
 "http://www.w3.org/Graphics/SVG/1.1/DTD/svg11.dtd">
<!-- Generated by graphviz version 2.43.0 (0)
 -->
<!-- Title: %3 Pages: 1 -->
<svg width="616pt" height="582pt"
 viewBox="0.00 0.00 615.79 582.48" xmlns="http://www.w3.org/2000/svg" xmlns:xlink="http://www.w3.org/1999/xlink">
<g id="graph0" class="graph" transform="scale(1 1) rotate(0) translate(4 578.48)">
<title>%3</title>
<polygon fill="white" stroke="transparent" points="-4,4 -4,-578.48 611.79,-578.48 611.79,4 -4,4"/>
<!-- Asmodeus -->
<g id="node1" class="node">
<title>Asmodeus</title>
<g id="a_node1"><a xlink:href="/dossiers/asmodeus" xlink:title="Asmodeus">
<ellipse fill="gray" stroke="black" cx="335.24" cy="-377.98" rx="57.69" ry="18"/>
<text text-anchor="middle" x="335.24" y="-374.28" font-family="Times,serif" font-size="14.00">Asmodeus</text>
</a>
</g>
</g>
<!-- Avandra -->
<g id="node2" class="node">
<title>Avandra</title>
<g id="a_node2"><a xlink:href="/dossiers/avandra" xlink:title="Avandra">
<ellipse fill="lightgray" stroke="black" cx="419.53" cy="-331.59" rx="49.29" ry="18"/>
<text text-anchor="middle" x="419.53" y="-327.89" font-family="Times,serif" font-size="14.00">Avandra</text>
</a>
</g>
</g>
<!-- Asmodeus&#45;&#45;Avandra -->
<g id="edge1" class="edge">
<title>Asmodeus&#45;&#45;Avandra</title>
<path fill="none" stroke="red" d="M363.78,-362.27C372.95,-357.23 383.08,-351.65 392.16,-346.65"/>
</g>
<!-- Erathis -->
<g id="node5" class="node">
<title>Erathis</title>
<g id="a_node5"><a xlink:href="/dossiers/erathis" xlink:title="Erathis">
<ellipse fill="lightgray" stroke="black" cx="521.77" cy="-338.62" rx="44.69" ry="18"/>
<text text-anchor="middle" x="521.77" y="-334.92" font-family="Times,serif" font-size="14.00">Erathis</text>
</a>
</g>
</g>
<!-- Asmodeus&#45;&#45;Erathis -->
<g id="edge2" class="edge">
<title>Asmodeus&#45;&#45;Erathis</title>
<path fill="none" stroke="blue" d="M383.28,-367.84C413.82,-361.39 452.91,-353.15 481.77,-347.06"/>
</g>
<!-- Kord -->
<g id="node8" class="node">
<title>Kord</title>
<g id="a_node8"><a xlink:href="/dossiers/kord" xlink:title="Kord">
<ellipse fill="lightgray" stroke="black" cx="326.86" cy="-556.48" rx="32.49" ry="18"/>
<text text-anchor="middle" x="326.86" y="-552.78" font-family="Times,serif" font-size="14.00">Kord</text>
</a>
</g>
</g>
<!-- Asmodeus&#45;&#45;Kord -->
<g id="edge3" class="edge">
<title>Asmodeus&#45;&#45;Kord</title>
<path fill="none" stroke="blue" d="M334.39,-396.08C332.79,-430.29 329.32,-504.08 327.71,-538.33"/>
</g>
<!-- Nerull -->
<g id="node11" class="node">
<title>Nerull</title>
<g id="a_node11"><a xlink:href="/dossiers/nerull" xlink:title="Nerull">
<ellipse fill="lightgray" stroke="black" cx="265.54" cy="-174.92" rx="40.09" ry="18"/>
<text text-anchor="middle" x="265.54" y="-171.22" font-family="Times,serif" font-size="14.00">Nerull</text>
</a>
</g>
</g>
<!-- Asmodeus&#45;&#45;Nerull -->
<g id="edge4" class="edge">
<title>Asmodeus&#45;&#45;Nerull</title>
<path fill="none" stroke="red" d="M329.06,-359.96C315.83,-321.42 284.93,-231.4 271.71,-192.9"/>
</g>
<!-- Sehanine -->
<g id="node14" class="node">
<title>Sehanine</title>
<g id="a_node14"><a xlink:href="/dossiers/sehanine" xlink:title="Sehanine">
<ellipse fill="lightgray" stroke="black" cx="220.77" cy="-316.54" rx="53.89" ry="18"/>
<text text-anchor="middle" x="220.77" y="-312.84" font-family="Times,serif" font-size="14.00">Sehanine</text>
</a>
</g>
</g>
<!-- Asmodeus&#45;&#45;Sehanine -->
<g id="edge5" class="edge">
<title>Asmodeus&#45;&#45;Sehanine</title>
<path fill="none" stroke="red" d="M306.06,-362.32C288.7,-353 266.78,-341.23 249.5,-331.96"/>
</g>
<!-- Avandra&#45;&#45;Erathis -->
<g id="edge6" class="edge">
<title>Avandra&#45;&#45;Erathis</title>
<path fill="none" stroke="blue" d="M468.25,-334.94C471.34,-335.15 474.44,-335.36 477.5,-335.57"/>
</g>
<!-- Ioun -->
<g id="node7" class="node">
<title>Ioun</title>
<g id="a_node7"><a xlink:href="/dossiers/ioun" xlink:title="Ioun">
<ellipse fill="lightgray" stroke="black" cx="552.66" cy="-200.28" rx="31.4" ry="18"/>
<text text-anchor="middle" x="552.66" y="-196.58" font-family="Times,serif" font-size="14.00">Ioun</text>
</a>
</g>
</g>
<!-- Avandra&#45;&#45;Ioun -->
<g id="edge7" class="edge">
<title>Avandra&#45;&#45;Ioun</title>
<path fill="none" stroke="blue" d="M436.66,-314.69C462.64,-289.06 511.65,-240.73 536.84,-215.89"/>
</g>
<!-- Avandra&#45;&#45;Sehanine -->
<g id="edge8" class="edge">
<title>Avandra&#45;&#45;Sehanine</title>
<path fill="none" stroke="blue" d="M371.16,-327.93C341.63,-325.69 303.85,-322.83 273.55,-320.54"/>
</g>
<!-- Bahamut -->
<g id="node3" class="node">
<title>Bahamut</title>
<g id="a_node3"><a xlink:href="/dossiers/bahamut" xlink:title="Bahamut">
<ellipse fill="lightyellow" stroke="black" cx="52.65" cy="-246.76" rx="52.79" ry="18"/>
<text text-anchor="middle" x="52.65" y="-243.06" font-family="Times,serif" font-size="14.00">Bahamut</text>
</a>
</g>
</g>
<!-- Bahamut&#45;&#45;Sehanine -->
<g id="edge9" class="edge">
<title>Bahamut&#45;&#45;Sehanine</title>
<path fill="none" stroke="red" d="M86.26,-260.71C115.49,-272.84 157.63,-290.33 186.92,-302.49"/>
</g>
<!-- Corellon -->
<g id="node4" class="node">
<title>Corellon</title>
<g id="a_node4"><a xlink:href="/dossiers/corellon" xlink:title="Corellon">
<ellipse fill="lightgray" stroke="black" cx="83.23" cy="-419.74" rx="50.09" ry="18"/>
<text text-anchor="middle" x="83.23" y="-416.04" font-family="Times,serif" font-size="14.00">Corellon</text>
</a>
</g>
</g>
<!-- Gruumsh -->
<g id="node6" class="node">
<title>Gruumsh</title>
<g id="a_node6"><a xlink:href="/dossiers/gruumsh" xlink:title="Gruumsh">
<ellipse fill="gray" stroke="black" cx="184.78" cy="-498.91" rx="53.89" ry="18"/>
<text text-anchor="middle" x="184.78" y="-495.21" font-family="Times,serif" font-size="14.00">Gruumsh</text>
</a>
</g>
</g>
<!-- Corellon&#45;&#45;Gruumsh -->
<g id="edge10" class="edge">
<title>Corellon&#45;&#45;Gruumsh</title>
<path fill="none" stroke="red" d="M104.27,-436.14C121.58,-449.64 146.02,-468.69 163.42,-482.26"/>
</g>
<!-- Corellon&#45;&#45;Sehanine -->
<g id="edge11" class="edge">
<title>Corellon&#45;&#45;Sehanine</title>
<path fill="none" stroke="blue" d="M105.02,-403.39C130.63,-384.18 172.87,-352.48 198.62,-333.16"/>
</g>
<!-- Erathis&#45;&#45;Ioun -->
<g id="edge12" class="edge">
<title>Erathis&#45;&#45;Ioun</title>
<path fill="none" stroke="blue" d="M525.81,-320.53C531.73,-294.02 542.7,-244.88 548.62,-218.37"/>
</g>
<!-- Pelor -->
<g id="node12" class="node">
<title>Pelor</title>
<g id="a_node12"><a xlink:href="/dossiers/pelor" xlink:title="Pelor">
<ellipse fill="lightyellow" stroke="black" cx="369.17" cy="-213.63" rx="34.39" ry="18"/>
<text text-anchor="middle" x="369.17" y="-209.93" font-family="Times,serif" font-size="14.00">Pelor</text>
</a>
</g>
</g>
<!-- Erathis&#45;&#45;Pelor -->
<g id="edge13" class="edge">
<title>Erathis&#45;&#45;Pelor</title>
<path fill="none" stroke="blue" d="M501.82,-322.28C472.25,-298.06 417.17,-252.95 388.16,-229.19"/>
</g>
<!-- Gruumsh&#45;&#45;Kord -->
<g id="edge14" class="edge">
<title>Gruumsh&#45;&#45;Kord</title>
<path fill="none" stroke="blue" d="M219.18,-512.85C244.14,-522.96 277.42,-536.45 300.34,-545.74"/>
</g>
<!-- Gruumsh&#45;&#45;Sehanine -->
<g id="edge15" class="edge">
<title>Gruumsh&#45;&#45;Sehanine</title>
<path fill="none" stroke="red" d="M188.36,-480.76C195.26,-445.8 210.32,-369.52 217.2,-334.62"/>
</g>
<!-- Vecna -->
<g id="node16" class="node">
<title>Vecna</title>
<g id="a_node16"><a xlink:href="/dossiers/vecna" xlink:title="Vecna">
<ellipse fill="gray" stroke="black" cx="430.11" cy="-83.32" rx="38.19" ry="18"/>
<text text-anchor="middle" x="430.11" y="-79.62" font-family="Times,serif" font-size="14.00">Vecna</text>
</a>
</g>
</g>
<!-- Ioun&#45;&#45;Vecna -->
<g id="edge16" class="edge">
<title>Ioun&#45;&#45;Vecna</title>
<path fill="none" stroke="red" d="M536.39,-184.75C513.21,-162.63 470.88,-122.23 447.24,-99.67"/>
</g>
<!-- Melora -->
<g id="node9" class="node">
<title>Melora</title>
<g id="a_node9"><a xlink:href="/dossiers/melora" xlink:title="Melora">
<ellipse fill="lightgray" stroke="black" cx="187.63" cy="-18" rx="43.59" ry="18"/>
<text text-anchor="middle" x="187.63" y="-14.3" font-family="Times,serif" font-size="14.00">Melora</text>
</a>
</g>
</g>
<!-- Melora&#45;&#45;Nerull -->
<g id="edge17" class="edge">
<title>Melora&#45;&#45;Nerull</title>
<path fill="none" stroke="blue" d="M196.41,-35.7C211.38,-65.83 241.64,-126.79 256.67,-157.05"/>
</g>
<!-- Moradin -->
<g id="node10" class="node">
<title>Moradin</title>
<g id="a_node10"><a xlink:href="/dossiers/moradin" xlink:title="Moradin">
<ellipse fill="lightyellow" stroke="black" cx="485.05" cy="-424" rx="50.09" ry="18"/>
<text text-anchor="middle" x="485.05" y="-420.3" font-family="Times,serif" font-size="14.00">Moradin</text>
</a>
</g>
</g>
<!-- Nerull&#45;&#45;Pelor -->
<g id="edge18" class="edge">
<title>Nerull&#45;&#45;Pelor</title>
<path fill="none" stroke="red" d="M296.63,-186.53C310.7,-191.79 327.21,-197.96 340.92,-203.08"/>
</g>
<!-- Nerull&#45;&#45;Sehanine -->
<g id="edge19" class="edge">
<title>Nerull&#45;&#45;Sehanine</title>
<path fill="none" stroke="blue" d="M259.87,-192.85C251.31,-219.95 235.16,-271.03 226.54,-298.3"/>
</g>
<!-- Nerull&#45;&#45;Vecna -->
<g id="edge20" class="edge">
<title>Nerull&#45;&#45;Vecna</title>
<path fill="none" stroke="red" d="M290.89,-160.81C322,-143.49 374.4,-114.33 405.27,-97.15"/>
</g>
<!-- Pelor&#45;&#45;Sehanine -->
<g id="edge21" class="edge">
<title>Pelor&#45;&#45;Sehanine</title>
<path fill="none" stroke="red" d="M348.22,-228.16C320.82,-247.16 272.93,-280.37 244.3,-300.22"/>
</g>
<!-- Pelor&#45;&#45;Vecna -->
<g id="edge22" class="edge">
<title>Pelor&#45;&#45;Vecna</title>
<path fill="none" stroke="red" d="M377.39,-196.06C389.02,-171.18 410.16,-125.98 421.83,-101.03"/>
</g>
<!-- Sardior -->
<g id="node13" class="node">
<title>Sardior</title>
<g id="a_node13"><a xlink:href="/dossiers/sardior" xlink:title="Sardior">
<ellipse fill="lightgray" stroke="black" cx="132.5" cy="-163" rx="45.49" ry="18"/>
<text text-anchor="middle" x="132.5" y="-159.3" font-family="Times,serif" font-size="14.00">Sardior</text>
</a>
</g>
</g>
<!-- Tiamat -->
<g id="node15" class="node">
<title>Tiamat</title>
<g id="a_node15"><a xlink:href="/dossiers/tiamat" xlink:title="Tiamat">
<ellipse fill="gray" stroke="black" cx="564.9" cy="-76" rx="42.79" ry="18"/>
<text text-anchor="middle" x="564.9" y="-72.3" font-family="Times,serif" font-size="14.00">Tiamat</text>
</a>
</g>
</g>
<!-- Yondalla -->
<g id="node17" class="node">
<title>Yondalla</title>
<g id="a_node17"><a xlink:href="/dossiers/yondalla" xlink:title="Yondalla">
<ellipse fill="black" stroke="black" cx="543.05" cy="-511" rx="50.09" ry="18"/>
<text text-anchor="middle" x="543.05" y="-507.3" font-family="Times,serif" font-size="14.00">Yondalla</text>
</a>
</g>
</g>
</g>
</svg>
