<?xml version="1.0" encoding="UTF-8" standalone="no"?>
<!DOCTYPE svg PUBLIC "-//W3C//DTD SVG 1.1//EN"
 "http://www.w3.org/Graphics/SVG/1.1/DTD/svg11.dtd">
<!-- Generated by graphviz version 3.0.0 (20220226.1711)
 -->
<!-- Pages: 1 -->
<svg width="839pt" height="548pt"
 viewBox="0.00 0.00 838.69 548.00" xmlns="http://www.w3.org/2000/svg" xmlns:xlink="http://www.w3.org/1999/xlink">
<g id="graph0" class="graph" transform="scale(1 1) rotate(0) translate(4 544)">
<polygon fill="white" stroke="transparent" points="-4,4 -4,-544 834.69,-544 834.69,4 -4,4"/>
<!-- Asmodeus -->
<g id="node1" class="node">
<title>Asmodeus</title>
<g id="a_node1"><a xlink:href="../../dossiers/asmodeus" xlink:title="Asmodeus">
<ellipse fill="gray" stroke="black" cx="644.4" cy="-522" rx="48.19" ry="18"/>
<text text-anchor="middle" x="644.4" y="-518.3" font-family="Times,serif" font-size="14.00">Asmodeus</text>
</a>
</g>
</g>
<!-- Avandra -->
<g id="node2" class="node">
<title>Avandra</title>
<g id="a_node2"><a xlink:href="../../dossiers/avandra" xlink:title="Avandra">
<ellipse fill="lightgray" stroke="black" cx="606.4" cy="-450" rx="40.09" ry="18"/>
<text text-anchor="middle" x="606.4" y="-446.3" font-family="Times,serif" font-size="14.00">Avandra</text>
</a>
</g>
</g>
<!-- Asmodeus&#45;&#45;Avandra -->
<g id="edge1" class="edge">
<title>Asmodeus&#45;&#45;Avandra</title>
<path fill="none" stroke="red" d="M635.2,-504.05C629.22,-493.05 621.47,-478.76 615.51,-467.79"/>
</g>
<!-- Erathis -->
<g id="node5" class="node">
<title>Erathis</title>
<g id="a_node5"><a xlink:href="../../dossiers/erathis" xlink:title="Erathis">
<ellipse fill="lightgray" stroke="black" cx="752.4" cy="-378" rx="36" ry="18"/>
<text text-anchor="middle" x="752.4" y="-374.3" font-family="Times,serif" font-size="14.00">Erathis</text>
</a>
</g>
</g>
<!-- Asmodeus&#45;&#45;Erathis -->
<g id="edge2" class="edge">
<title>Asmodeus&#45;&#45;Erathis</title>
<path fill="none" stroke="blue" d="M661.75,-505.14C672.35,-495.02 685.85,-481.35 696.4,-468 715.19,-444.22 733.15,-413.86 743.47,-395.45"/>
</g>
<!-- Gruumsh -->
<g id="node6" class="node">
<title>Gruumsh</title>
<g id="a_node6"><a xlink:href="../../dossiers/gruumsh" xlink:title="Gruumsh">
<ellipse fill="gray" stroke="black" cx="312.4" cy="-306" rx="44.39" ry="18"/>
<text text-anchor="middle" x="312.4" y="-302.3" font-family="Times,serif" font-size="14.00">Gruumsh</text>
</a>
</g>
</g>
<!-- Asmodeus&#45;&#45;Gruumsh -->
<g id="edge3" class="edge">
<title>Asmodeus&#45;&#45;Gruumsh</title>
<path fill="none" stroke="blue" d="M619.88,-506.37C602.38,-495.85 578.32,-481.24 557.4,-468 474.18,-415.33 376.79,-350.3 334.2,-321.69"/>
</g>
<!-- Melora -->
<g id="node10" class="node">
<title>Melora</title>
<g id="a_node10"><a xlink:href="../../dossiers/melora" xlink:title="Melora">
<ellipse fill="lightgray" stroke="black" cx="676.4" cy="-306" rx="36.29" ry="18"/>
<text text-anchor="middle" x="676.4" y="-302.3" font-family="Times,serif" font-size="14.00">Melora</text>
</a>
</g>
</g>
<!-- Asmodeus&#45;&#45;Melora -->
<g id="edge4" class="edge">
<title>Asmodeus&#45;&#45;Melora</title>
<path fill="none" stroke="red" d="M648.29,-503.88C650.56,-493.53 653.36,-480.05 655.4,-468 664.21,-415.75 671.41,-353.41 674.61,-323.98"/>
</g>
<!-- Nerull -->
<g id="node12" class="node">
<title>Nerull</title>
<g id="a_node12"><a xlink:href="../../dossiers/nerull" xlink:title="Nerull">
<ellipse fill="lightgray" stroke="black" cx="744.4" cy="-234" rx="33.29" ry="18"/>
<text text-anchor="middle" x="744.4" y="-230.3" font-family="Times,serif" font-size="14.00">Nerull</text>
</a>
</g>
</g>
<!-- Asmodeus&#45;&#45;Nerull -->
<g id="edge5" class="edge">
<title>Asmodeus&#45;&#45;Nerull</title>
<path fill="none" stroke="red" d="M668.34,-506.22C684.16,-496.1 705.1,-482.02 722.4,-468 783.74,-418.3 811.37,-401.5 826.4,-324 829.44,-308.29 834.05,-302.05 826.4,-288 814.81,-266.71 790.58,-252.67 771.45,-244.42"/>
</g>
<!-- Sehanine -->
<g id="node15" class="node">
<title>Sehanine</title>
<g id="a_node15"><a xlink:href="../../dossiers/sehanine" xlink:title="Sehanine">
<ellipse fill="lightgray" stroke="black" cx="335.4" cy="-90" rx="42.79" ry="18"/>
<text text-anchor="middle" x="335.4" y="-86.3" font-family="Times,serif" font-size="14.00">Sehanine</text>
</a>
</g>
</g>
<!-- Asmodeus&#45;&#45;Sehanine -->
<g id="edge6" class="edge">
<title>Asmodeus&#45;&#45;Sehanine</title>
<path fill="none" stroke="red" d="M596.54,-519.95C488.97,-514.68 228.81,-485.06 117.4,-324 108.29,-310.84 113.34,-303.48 117.4,-288 118.56,-283.56 194.93,-147 198.4,-144 226.64,-119.54 267.42,-105.72 297.14,-98.37"/>
</g>
<!-- Corellon -->
<g id="node4" class="node">
<title>Corellon</title>
<g id="a_node4"><a xlink:href="../../dossiers/corellon" xlink:title="Corellon">
<ellipse fill="lightgray" stroke="black" cx="536.4" cy="-378" rx="41.69" ry="18"/>
<text text-anchor="middle" x="536.4" y="-374.3" font-family="Times,serif" font-size="14.00">Corellon</text>
</a>
</g>
</g>
<!-- Avandra&#45;&#45;Corellon -->
<g id="edge7" class="edge">
<title>Avandra&#45;&#45;Corellon</title>
<path fill="none" stroke="blue" d="M590.51,-433.12C579.06,-421.66 563.66,-406.26 552.22,-394.82"/>
</g>
<!-- Avandra&#45;&#45;Erathis -->
<g id="edge8" class="edge">
<title>Avandra&#45;&#45;Erathis</title>
<path fill="none" stroke="blue" d="M632.84,-436.32C659.63,-423.48 700.77,-403.75 727.13,-391.11"/>
</g>
<!-- Ioun -->
<g id="node8" class="node">
<title>Ioun</title>
<g id="a_node8"><a xlink:href="../../dossiers/ioun" xlink:title="Ioun">
<ellipse fill="lightgray" stroke="black" cx="757.4" cy="-306" rx="27" ry="18"/>
<text text-anchor="middle" x="757.4" y="-302.3" font-family="Times,serif" font-size="14.00">Ioun</text>
</a>
</g>
</g>
<!-- Avandra&#45;&#45;Ioun -->
<g id="edge9" class="edge">
<title>Avandra&#45;&#45;Ioun</title>
<path fill="none" stroke="blue" d="M622.84,-433.53C652.35,-405.79 713.84,-347.96 742.32,-321.18"/>
</g>
<!-- Avandra&#45;&#45;Melora -->
<g id="edge10" class="edge">
<title>Avandra&#45;&#45;Melora</title>
<path fill="none" stroke="blue" d="M608.69,-431.76C611.68,-413.18 618.07,-383.17 630.4,-360 637.95,-345.8 649.95,-332.16 659.79,-322.27"/>
</g>
<!-- Moradin -->
<g id="node11" class="node">
<title>Moradin</title>
<g id="a_node11"><a xlink:href="../../dossiers/moradin" xlink:title="Moradin">
<ellipse fill="lightyellow" stroke="black" cx="423.4" cy="-234" rx="41.69" ry="18"/>
<text text-anchor="middle" x="423.4" y="-230.3" font-family="Times,serif" font-size="14.00">Moradin</text>
</a>
</g>
</g>
<!-- Avandra&#45;&#45;Moradin -->
<g id="edge11" class="edge">
<title>Avandra&#45;&#45;Moradin</title>
<path fill="none" stroke="blue" d="M571.18,-440.97C544.66,-433.34 508.97,-419.45 485.4,-396 444.41,-355.23 429.98,-284.43 425.37,-252.05"/>
</g>
<!-- Avandra&#45;&#45;Sehanine -->
<g id="edge12" class="edge">
<title>Avandra&#45;&#45;Sehanine</title>
<path fill="none" stroke="blue" d="M569.29,-442.78C476.24,-426.13 240.4,-377.03 240.4,-307 240.4,-307 240.4,-307 240.4,-233 240.4,-179.02 288.41,-130.02 316.17,-106.2"/>
</g>
<!-- Bahamut -->
<g id="node3" class="node">
<title>Bahamut</title>
<g id="a_node3"><a xlink:href="../../dossiers/bahamut" xlink:title="Bahamut">
<ellipse fill="lightyellow" stroke="black" cx="169.4" cy="-306" rx="42.79" ry="18"/>
<text text-anchor="middle" x="169.4" y="-302.3" font-family="Times,serif" font-size="14.00">Bahamut</text>
</a>
</g>
</g>
<!-- Io -->
<g id="node7" class="node">
<title>Io</title>
<g id="a_node7"><a xlink:href="../../dossiers/io" xlink:title="Io">
<ellipse fill="lightgray" stroke="black" cx="100.4" cy="-234" rx="27" ry="18"/>
<text text-anchor="middle" x="100.4" y="-230.3" font-family="Times,serif" font-size="14.00">Io</text>
</a>
</g>
</g>
<!-- Bahamut&#45;&#45;Io -->
<g id="edge13" class="edge">
<title>Bahamut&#45;&#45;Io</title>
<path fill="none" stroke="blue" d="M153.74,-289.12C141.97,-277.18 125.98,-260.95 114.58,-249.39"/>
</g>
<!-- Bahamut&#45;&#45;Moradin -->
<g id="edge14" class="edge">
<title>Bahamut&#45;&#45;Moradin</title>
<path fill="none" stroke="blue" d="M205.73,-296.42C246.71,-286.54 315.21,-269.43 373.4,-252 379.55,-250.16 386.07,-248.05 392.3,-245.97"/>
</g>
<!-- Bahamut&#45;&#45;Sehanine -->
<g id="edge15" class="edge">
<title>Bahamut&#45;&#45;Sehanine</title>
<path fill="none" stroke="red" d="M171.19,-287.8C175.37,-255.79 188.46,-186.45 226.4,-144 245.89,-122.19 276.35,-108.44 300.12,-100.43"/>
</g>
<!-- Tiamat -->
<g id="node16" class="node">
<title>Tiamat</title>
<g id="a_node16"><a xlink:href="../../dossiers/tiamat" xlink:title="Tiamat">
<ellipse fill="gray" stroke="black" cx="36.4" cy="-18" rx="36.29" ry="18"/>
<text text-anchor="middle" x="36.4" y="-14.3" font-family="Times,serif" font-size="14.00">Tiamat</text>
</a>
</g>
</g>
<!-- Bahamut&#45;&#45;Tiamat -->
<g id="edge16" class="edge">
<title>Bahamut&#45;&#45;Tiamat</title>
<path fill="none" stroke="red" d="M134.78,-295.19C111.89,-287.06 82.82,-273.32 64.4,-252 10.06,-189.11 24.54,-78.49 32.67,-36.15"/>
</g>
<!-- Corellon&#45;&#45;Gruumsh -->
<g id="edge17" class="edge">
<title>Corellon&#45;&#45;Gruumsh</title>
<path fill="none" stroke="red" d="M503.34,-366.67C461.24,-353.51 388.84,-330.89 346.32,-317.6"/>
</g>
<!-- Corellon&#45;&#45;Ioun -->
<g id="edge18" class="edge">
<title>Corellon&#45;&#45;Ioun</title>
<path fill="none" stroke="blue" d="M572.07,-368.61C609.74,-359.33 670.59,-343.13 721.4,-324 726.31,-322.15 731.48,-319.9 736.32,-317.65"/>
</g>
<!-- Kord -->
<g id="node9" class="node">
<title>Kord</title>
<g id="a_node9"><a xlink:href="../../dossiers/kord" xlink:title="Kord">
<ellipse fill="lightgray" stroke="black" cx="335.4" cy="-234" rx="28.7" ry="18"/>
<text text-anchor="middle" x="335.4" y="-230.3" font-family="Times,serif" font-size="14.00">Kord</text>
</a>
</g>
</g>
<!-- Corellon&#45;&#45;Kord -->
<g id="edge19" class="edge">
<title>Corellon&#45;&#45;Kord</title>
<path fill="none" stroke="blue" d="M513.18,-362.85C496.36,-352.44 473.19,-337.76 453.4,-324 416.73,-298.52 375.39,-266.56 352.68,-248.7"/>
</g>
<!-- Corellon&#45;&#45;Melora -->
<g id="edge20" class="edge">
<title>Corellon&#45;&#45;Melora</title>
<path fill="none" stroke="blue" d="M562.73,-363.83C588.23,-351.08 626.62,-331.89 651.59,-319.4"/>
</g>
<!-- Corellon&#45;&#45;Moradin -->
<g id="edge21" class="edge">
<title>Corellon&#45;&#45;Moradin</title>
<path fill="none" stroke="blue" d="M519.7,-361.45C509.1,-351.24 495.37,-337.34 484.4,-324 464.76,-300.13 445.1,-270.06 433.6,-251.69"/>
</g>
<!-- Corellon&#45;&#45;Nerull -->
<g id="edge22" class="edge">
<title>Corellon&#45;&#45;Nerull</title>
<path fill="none" stroke="blue" d="M552.09,-361.14C574.43,-338.78 614.56,-299.41 631.4,-288 658.84,-269.4 693.84,-254.1 717.57,-244.8"/>
</g>
<!-- Pelor -->
<g id="node13" class="node">
<title>Pelor</title>
<g id="a_node13"><a xlink:href="../../dossiers/pelor" xlink:title="Pelor">
<ellipse fill="lightyellow" stroke="black" cx="626.4" cy="-162" rx="29.5" ry="18"/>
<text text-anchor="middle" x="626.4" y="-158.3" font-family="Times,serif" font-size="14.00">Pelor</text>
</a>
</g>
</g>
<!-- Corellon&#45;&#45;Pelor -->
<g id="edge23" class="edge">
<title>Corellon&#45;&#45;Pelor</title>
<path fill="none" stroke="blue" d="M543.46,-360.21C560.28,-320.2 602.58,-219.64 619.37,-179.71"/>
</g>
<!-- Corellon&#45;&#45;Sehanine -->
<g id="edge24" class="edge">
<title>Corellon&#45;&#45;Sehanine</title>
<path fill="none" stroke="blue" d="M530.97,-359.99C519.25,-323.8 491.26,-240.49 474.4,-216 441.73,-168.55 387.54,-126.81 357.38,-105.67"/>
</g>
<!-- Vecna -->
<g id="node17" class="node">
<title>Vecna</title>
<g id="a_node17"><a xlink:href="../../dossiers/vecna" xlink:title="Vecna">
<ellipse fill="gray" stroke="black" cx="593.4" cy="-18" rx="32.49" ry="18"/>
<text text-anchor="middle" x="593.4" y="-14.3" font-family="Times,serif" font-size="14.00">Vecna</text>
</a>
</g>
</g>
<!-- Corellon&#45;&#45;Vecna -->
<g id="edge25" class="edge">
<title>Corellon&#45;&#45;Vecna</title>
<path fill="none" stroke="red" d="M539.15,-359.73C548.8,-299.12 581.07,-96.44 590.68,-36.09"/>
</g>
<!-- Erathis&#45;&#45;Ioun -->
<g id="edge26" class="edge">
<title>Erathis&#45;&#45;Ioun</title>
<path fill="none" stroke="blue" d="M753.63,-359.7C754.41,-348.85 755.4,-334.92 756.18,-324.1"/>
</g>
<!-- Erathis&#45;&#45;Melora -->
<g id="edge27" class="edge">
<title>Erathis&#45;&#45;Melora</title>
<path fill="none" stroke="red" d="M735.91,-361.81C723.16,-350.07 705.6,-333.89 692.86,-322.16"/>
</g>
<!-- Erathis&#45;&#45;Moradin -->
<g id="edge28" class="edge">
<title>Erathis&#45;&#45;Moradin</title>
<path fill="none" stroke="blue" d="M768.93,-361.68C787.47,-342.68 812.56,-310.11 793.4,-288 772.04,-263.36 556.12,-244.74 464.34,-237.88"/>
</g>
<!-- Erathis&#45;&#45;Pelor -->
<g id="edge29" class="edge">
<title>Erathis&#45;&#45;Pelor</title>
<path fill="none" stroke="blue" d="M774.34,-363.76C787.48,-354.46 803.02,-340.73 810.4,-324 816.85,-309.36 819.75,-300.98 810.4,-288 780.81,-246.95 744.36,-280.27 702.4,-252 694.6,-246.75 658.38,-202.61 638.89,-178.53"/>
</g>
<!-- Gruumsh&#45;&#45;Kord -->
<g id="edge30" class="edge">
<title>Gruumsh&#45;&#45;Kord</title>
<path fill="none" stroke="blue" d="M317.96,-288.05C321.58,-277.05 326.27,-262.76 329.88,-251.79"/>
</g>
<!-- Gruumsh&#45;&#45;Moradin -->
<g id="edge31" class="edge">
<title>Gruumsh&#45;&#45;Moradin</title>
<path fill="none" stroke="blue" d="M335.4,-290.5C354.57,-278.4 381.74,-261.27 400.81,-249.25"/>
</g>
<!-- Gruumsh&#45;&#45;Sehanine -->
<g id="edge32" class="edge">
<title>Gruumsh&#45;&#45;Sehanine</title>
<path fill="none" stroke="red" d="M306.31,-288.07C302.95,-277.79 299.11,-264.31 297.4,-252 289.97,-198.52 313.95,-136.76 327.21,-107.72"/>
</g>
<!-- Sardior -->
<g id="node14" class="node">
<title>Sardior</title>
<g id="a_node14"><a xlink:href="../../dossiers/sardior" xlink:title="Sardior">
<ellipse fill="lightgray" stroke="black" cx="100.4" cy="-162" rx="36.29" ry="18"/>
<text text-anchor="middle" x="100.4" y="-158.3" font-family="Times,serif" font-size="14.00">Sardior</text>
</a>
</g>
</g>
<!-- Io&#45;&#45;Sardior -->
<g id="edge33" class="edge">
<title>Io&#45;&#45;Sardior</title>
<path fill="none" stroke="blue" d="M100.4,-215.7C100.4,-204.85 100.4,-190.92 100.4,-180.1"/>
</g>
<!-- Io&#45;&#45;Tiamat -->
<g id="edge34" class="edge">
<title>Io&#45;&#45;Tiamat</title>
<path fill="none" stroke="blue" d="M84.32,-218.9C74.24,-209.07 61.95,-195.05 55.4,-180 34.16,-131.23 33.92,-66.72 35.26,-36.29"/>
</g>
<!-- Ioun&#45;&#45;Pelor -->
<g id="edge35" class="edge">
<title>Ioun&#45;&#45;Pelor</title>
<path fill="none" stroke="blue" d="M736.52,-294.23C713.82,-282.21 679.43,-263 669.4,-252 649.97,-230.7 637.52,-199.03 631.26,-179.77"/>
</g>
<!-- Ioun&#45;&#45;Vecna -->
<g id="edge36" class="edge">
<title>Ioun&#45;&#45;Vecna</title>
<path fill="none" stroke="red" d="M768.8,-289.18C775.36,-279.09 782.97,-265.41 786.4,-252 790.36,-236.5 791.65,-231.11 786.4,-216 759.57,-138.9 732.34,-127.4 672.4,-72 654.93,-55.86 632.12,-41.11 615.5,-31.29"/>
</g>
<!-- Kord&#45;&#45;Sehanine -->
<g id="edge37" class="edge">
<title>Kord&#45;&#45;Sehanine</title>
<path fill="none" stroke="blue" d="M335.4,-215.87C335.4,-188.58 335.4,-135.52 335.4,-108.19"/>
</g>
<!-- Melora&#45;&#45;Nerull -->
<g id="edge38" class="edge">
<title>Melora&#45;&#45;Nerull</title>
<path fill="none" stroke="blue" d="M691.49,-289.46C702.76,-277.86 718.09,-262.08 729.35,-250.49"/>
</g>
<!-- Melora&#45;&#45;Sehanine -->
<g id="edge39" class="edge">
<title>Melora&#45;&#45;Sehanine</title>
<path fill="none" stroke="blue" d="M663.8,-288.74C637.94,-256.45 575.57,-183.95 507.4,-144 465.34,-119.36 410.67,-105.07 374.38,-97.66"/>
</g>
<!-- Moradin&#45;&#45;Pelor -->
<g id="edge40" class="edge">
<title>Moradin&#45;&#45;Pelor</title>
<path fill="none" stroke="blue" d="M455.12,-222.06C495.48,-208.14 564.39,-184.38 601.3,-171.65"/>
</g>
<!-- Moradin&#45;&#45;Sehanine -->
<g id="edge41" class="edge">
<title>Moradin&#45;&#45;Sehanine</title>
<path fill="none" stroke="blue" d="M413.13,-216.43C396.26,-189.22 362.87,-135.33 345.87,-107.9"/>
</g>
<!-- Nerull&#45;&#45;Sehanine -->
<g id="edge42" class="edge">
<title>Nerull&#45;&#45;Sehanine</title>
<path fill="none" stroke="blue" d="M734.57,-216.43C721.39,-195.8 695.95,-161.21 664.4,-144 615.57,-117.38 454.53,-100.85 377.36,-94.27"/>
</g>
<!-- Nerull&#45;&#45;Vecna -->
<g id="edge43" class="edge">
<title>Nerull&#45;&#45;Vecna</title>
<path fill="none" stroke="red" d="M737.37,-216.28C729.32,-197.9 715.19,-167.81 699.4,-144 671.08,-101.32 630.18,-56.86 608.39,-34.22"/>
</g>
<!-- Pelor&#45;&#45;Sehanine -->
<g id="edge44" class="edge">
<title>Pelor&#45;&#45;Sehanine</title>
<path fill="none" stroke="red" d="M599.54,-154.54C547.06,-141.92 430.85,-113.96 371.63,-99.72"/>
</g>
<!-- Pelor&#45;&#45;Vecna -->
<g id="edge45" class="edge">
<title>Pelor&#45;&#45;Vecna</title>
<path fill="none" stroke="red" d="M622.48,-144.15C616.16,-116.97 603.79,-63.72 597.41,-36.27"/>
</g>
<!-- Sardior&#45;&#45;Sehanine -->
<g id="edge46" class="edge">
<title>Sardior&#45;&#45;Sehanine</title>
<path fill="none" stroke="blue" d="M129.4,-150.87C136.26,-148.55 143.57,-146.14 150.4,-144 202.37,-127.73 263.16,-110.69 300.47,-100.46"/>
</g>
<!-- Sardior&#45;&#45;Vecna -->
<g id="edge47" class="edge">
<title>Sardior&#45;&#45;Vecna</title>
<path fill="none" stroke="blue" d="M122.64,-147.6C156.25,-127.96 222.52,-91.57 283.4,-72 381.9,-40.34 504.44,-26.51 561.45,-21.46"/>
</g>
<!-- Sehanine&#45;&#45;Tiamat -->
<g id="edge48" class="edge">
<title>Sehanine&#45;&#45;Tiamat</title>
<path fill="none" stroke="red" d="M298.73,-80.42C239.79,-66.62 124.89,-39.72 68.79,-26.58"/>
</g>
<!-- Sehanine&#45;&#45;Vecna -->
<g id="edge49" class="edge">
<title>Sehanine&#45;&#45;Vecna</title>
<path fill="none" stroke="red" d="M370.46,-79.49C421.99,-65.51 517.19,-39.68 564.77,-26.77"/>
</g>
<!-- Yondalla -->
<g id="node18" class="node">
<title>Yondalla</title>
<g id="a_node18"><a xlink:href="../../dossiers/yondalla" xlink:title="Yondalla">
<ellipse fill="black" stroke="black" cx="752.4" cy="-522" rx="42.49" ry="18"/>
<text text-anchor="middle" x="752.4" y="-518.3" font-family="Times,serif" font-size="14.00">Yondalla</text>
</a>
</g>
</g>
</g>
</svg>
