<?xml version="1.0" encoding="UTF-8" standalone="no"?>
<!DOCTYPE svg PUBLIC "-//W3C//DTD SVG 1.1//EN"
 "http://www.w3.org/Graphics/SVG/1.1/DTD/svg11.dtd">
<!-- Generated by graphviz version 2.43.0 (0)
 -->
<!-- Title: %3 Pages: 1 -->
<svg width="338pt" height="447pt"
 viewBox="0.00 0.00 337.84 446.71" xmlns="http://www.w3.org/2000/svg" xmlns:xlink="http://www.w3.org/1999/xlink">
<g id="graph0" class="graph" transform="scale(1 1) rotate(0) translate(14.4 432.31)">
<title>%3</title>
<polygon fill="white" stroke="transparent" points="-14.4,14.4 -14.4,-432.31 323.44,-432.31 323.44,14.4 -14.4,14.4"/>
<!-- Io -->
<g id="node1" class="node">
<title>Io</title>
<ellipse fill="none" stroke="black" cx="147.54" cy="-208.19" rx="27" ry="18"/>
<text text-anchor="middle" x="147.54" y="-204.49" font-family="Times,serif" font-size="14.00">Io</text>
</g>
<!-- Bahamut -->
<g id="node2" class="node">
<title>Bahamut</title>
<ellipse fill="none" stroke="black" cx="128.58" cy="-305.35" rx="52.79" ry="18"/>
<text text-anchor="middle" x="128.58" y="-301.65" font-family="Times,serif" font-size="14.00">Bahamut</text>
</g>
<!-- Io&#45;&gt;Bahamut -->
<g id="edge1" class="edge">
<title>Io&#45;&gt;Bahamut</title>
<path fill="none" stroke="black" d="M143.98,-226.46C141.2,-240.71 137.29,-260.75 134.1,-277.07"/>
<polygon fill="black" stroke="black" points="130.61,-276.67 132.13,-287.16 137.48,-278.01 130.61,-276.67"/>
</g>
<!-- Tiamat -->
<g id="node3" class="node">
<title>Tiamat</title>
<ellipse fill="none" stroke="black" cx="169.72" cy="-111.69" rx="42.79" ry="18"/>
<text text-anchor="middle" x="169.72" y="-107.99" font-family="Times,serif" font-size="14.00">Tiamat</text>
</g>
<!-- Io&#45;&gt;Tiamat -->
<g id="edge2" class="edge">
<title>Io&#45;&gt;Tiamat</title>
<path fill="none" stroke="black" d="M151.71,-190.04C154.97,-175.89 159.54,-155.98 163.26,-139.78"/>
<polygon fill="black" stroke="black" points="166.74,-140.29 165.57,-129.76 159.92,-138.72 166.74,-140.29"/>
</g>
<!-- Earth -->
<g id="node4" class="node">
<title>Earth</title>
<ellipse fill="none" stroke="black" cx="110.55" cy="-399.91" rx="37.09" ry="18"/>
<text text-anchor="middle" x="110.55" y="-396.21" font-family="Times,serif" font-size="14.00">Earth</text>
</g>
<!-- Bahamut&#45;&gt;Earth -->
<g id="edge3" class="edge">
<title>Bahamut&#45;&gt;Earth</title>
<path fill="none" stroke="black" d="M125.1,-323.58C122.51,-337.19 118.92,-356.03 115.95,-371.59"/>
<polygon fill="black" stroke="black" points="112.45,-371.26 114.01,-381.74 119.32,-372.57 112.45,-371.26"/>
</g>
<!-- Sky -->
<g id="node5" class="node">
<title>Sky</title>
<ellipse fill="none" stroke="black" cx="217.04" cy="-354.94" rx="27.9" ry="18"/>
<text text-anchor="middle" x="217.04" y="-351.24" font-family="Times,serif" font-size="14.00">Sky</text>
</g>
<!-- Bahamut&#45;&gt;Sky -->
<g id="edge4" class="edge">
<title>Bahamut&#45;&gt;Sky</title>
<path fill="none" stroke="black" d="M156.09,-320.77C165.87,-326.25 176.94,-332.46 186.93,-338.06"/>
<polygon fill="black" stroke="black" points="185.3,-341.16 195.74,-343 188.73,-335.05 185.3,-341.16"/>
</g>
<!-- Sea -->
<g id="node6" class="node">
<title>Sea</title>
<ellipse fill="none" stroke="black" cx="27.95" cy="-317.35" rx="27.9" ry="18"/>
<text text-anchor="middle" x="27.95" y="-313.65" font-family="Times,serif" font-size="14.00">Sea</text>
</g>
<!-- Bahamut&#45;&gt;Sea -->
<g id="edge5" class="edge">
<title>Bahamut&#45;&gt;Sea</title>
<path fill="none" stroke="black" d="M78.85,-311.28C74.47,-311.8 70.07,-312.33 65.81,-312.83"/>
<polygon fill="black" stroke="black" points="65.06,-309.4 55.54,-314.06 65.89,-316.35 65.06,-309.4"/>
</g>
<!-- Night -->
<g id="node7" class="node">
<title>Night</title>
<ellipse fill="none" stroke="black" cx="82.76" cy="-59.68" rx="37.09" ry="18"/>
<text text-anchor="middle" x="82.76" y="-55.98" font-family="Times,serif" font-size="14.00">Night</text>
</g>
<!-- Tiamat&#45;&gt;Night -->
<g id="edge6" class="edge">
<title>Tiamat&#45;&gt;Night</title>
<path fill="none" stroke="black" d="M145.03,-96.93C135.73,-91.36 125,-84.95 115.1,-79.03"/>
<polygon fill="black" stroke="black" points="116.69,-75.89 106.31,-73.77 113.09,-81.9 116.69,-75.89"/>
</g>
<!-- Darkness -->
<g id="node8" class="node">
<title>Darkness</title>
<ellipse fill="none" stroke="black" cx="191.95" cy="-18" rx="53.89" ry="18"/>
<text text-anchor="middle" x="191.95" y="-14.3" font-family="Times,serif" font-size="14.00">Darkness</text>
</g>
<!-- Tiamat&#45;&gt;Darkness -->
<g id="edge7" class="edge">
<title>Tiamat&#45;&gt;Darkness</title>
<path fill="none" stroke="black" d="M174.01,-93.63C177.2,-80.15 181.63,-61.48 185.29,-46.06"/>
<polygon fill="black" stroke="black" points="188.77,-46.55 187.68,-36.01 181.96,-44.93 188.77,-46.55"/>
</g>
<!-- Abyss -->
<g id="node9" class="node">
<title>Abyss</title>
<ellipse fill="none" stroke="black" cx="270.69" cy="-102.47" rx="38.19" ry="18"/>
<text text-anchor="middle" x="270.69" y="-98.77" font-family="Times,serif" font-size="14.00">Abyss</text>
</g>
<!-- Tiamat&#45;&gt;Abyss -->
<g id="edge8" class="edge">
<title>Tiamat&#45;&gt;Abyss</title>
<path fill="none" stroke="black" d="M211.66,-107.86C215.29,-107.53 218.99,-107.19 222.66,-106.86"/>
<polygon fill="black" stroke="black" points="223.27,-110.31 232.91,-105.92 222.63,-103.34 223.27,-110.31"/>
</g>
</g>
</svg>
